<svg width="840" height="200" xmlns="http://www.w3.org/2000/svg">
  <defs>
    <linearGradient id="waveGrad" x1="0%" y1="0%" x2="100%" y2="0%">
      <stop offset="0%" stop-color="#58a6ff"/>
      <stop offset="100%" stop-color="#7d8590"/>
    </linearGradient>
  </defs>

  <!-- Waveform -->
  <g>
    <rect x="7.9" y="156" width="2.5" height="4" fill="url(#waveGrad)" rx="1.2" opacity="0.25"/>
    <rect x="18.3" y="156" width="2.5" height="4" fill="url(#waveGrad)" rx="1.2" opacity="0.25"/>
    <rect x="28.7" y="156" width="2.5" height="4" fill="url(#waveGrad)" rx="1.2" opacity="0.25"/>
    <rect x="39.1" y="156" width="2.5" height="4" fill="url(#waveGrad)" rx="1.2" opacity="0.25"/>
    <rect x="49.5" y="156" width="2.5" height="4" fill="url(#waveGrad)" rx="1.2" opacity="0.25"/>
    <rect x="59.9" y="156" width="2.5" height="4" fill="url(#waveGrad)" rx="1.2" opacity="0.25"/>
    <rect x="70.3" y="155" width="2.5" height="5" fill="url(#waveGrad)" rx="1.2" opacity="0.25"/>
    <rect x="80.7" y="156" width="2.5" height="4" fill="url(#waveGrad)" rx="1.2" opacity="0.25"/>
    <rect x="91.1" y="156" width="2.5" height="4" fill="url(#waveGrad)" rx="1.2" opacity="0.25"/>
    <rect x="101.5" y="156" width="2.5" height="4" fill="url(#waveGrad)" rx="1.2" opacity="0.25"/>
    <rect x="111.9" y="156" width="2.5" height="4" fill="url(#waveGrad)" rx="1.2" opacity="0.25"/>
    <rect x="122.3" y="156" width="2.5" height="4" fill="url(#waveGrad)" rx="1.2" opacity="0.25"/>
    <rect x="132.7" y="155" width="2.5" height="5" fill="url(#waveGrad)" rx="1.2" opacity="0.25"/>
    <rect x="143.1" y="154" width="2.5" height="6" fill="url(#waveGrad)" rx="1.2" opacity="0.25"/>
    <rect x="153.5" y="152" width="2.5" height="8" fill="url(#waveGrad)" rx="1.2" opacity="0.25"/>
    <rect x="163.9" y="150" width="2.5" height="10" fill="url(#waveGrad)" rx="1.2" opacity="0.25"/>
    <rect x="174.3" y="148" width="2.5" height="12" fill="url(#waveGrad)" rx="1.2" opacity="0.25"/>
    <rect x="184.7" y="145" width="2.5" height="15" fill="url(#waveGrad)" rx="1.2" opacity="0.25"/>
    <rect x="195.1" y="149" width="2.5" height="11" fill="url(#waveGrad)" rx="1.2" opacity="0.25"/>
    <rect x="205.5" y="140" width="2.5" height="20" fill="url(#waveGrad)" rx="1.2" opacity="0.25"/>
    <rect x="215.9" y="147" width="2.5" height="13" fill="url(#waveGrad)" rx="1.2" opacity="0.25"/>
    <rect x="226.3" y="148" width="2.5" height="12" fill="url(#waveGrad)" rx="1.2" opacity="0.25"/>
    <rect x="236.7" y="152" width="2.5" height="8" fill="url(#waveGrad)" rx="1.2" opacity="0.25"/>
    <rect x="247.1" y="156" width="2.5" height="4" fill="url(#waveGrad)" rx="1.2" opacity="0.25"/>
    <rect x="257.5" y="153" width="2.5" height="7" fill="url(#waveGrad)" rx="1.2" opacity="0.25"/>
    <rect x="267.9" y="152" width="2.5" height="8" fill="url(#waveGrad)" rx="1.2" opacity="0.25"/>
    <rect x="278.3" y="136" width="2.5" height="24" fill="url(#waveGrad)" rx="1.2" opacity="0.25"/>
    <rect x="288.7" y="135" width="2.5" height="25" fill="url(#waveGrad)" rx="1.2" opacity="0.25"/>
    <rect x="299.1" y="128" width="2.5" height="32" fill="url(#waveGrad)" rx="1.2" opacity="0.25"/>
    <rect x="309.5" y="123" width="2.5" height="37" fill="url(#waveGrad)" rx="1.2" opacity="0.25"/>
    <rect x="319.9" y="129" width="2.5" height="31" fill="url(#waveGrad)" rx="1.2" opacity="0.25"/>
    <rect x="330.3" y="138" width="2.5" height="22" fill="url(#waveGrad)" rx="1.2" opacity="0.25"/>
    <rect x="340.7" y="141" width="2.5" height="19" fill="url(#waveGrad)" rx="1.2" opacity="0.25"/>
    <rect x="351.1" y="123" width="2.5" height="37" fill="url(#waveGrad)" rx="1.2" opacity="0.25"/>
    <rect x="361.5" y="135" width="2.5" height="25" fill="url(#waveGrad)" rx="1.2" opacity="0.25"/>
    <rect x="371.9" y="145" width="2.5" height="15" fill="url(#waveGrad)" rx="1.2" opacity="0.25"/>
    <rect x="382.3" y="150" width="2.5" height="10" fill="url(#waveGrad)" rx="1.2" opacity="0.25"/>
    <rect x="392.7" y="147" width="2.5" height="13" fill="url(#waveGrad)" rx="1.2" opacity="0.25"/>
    <rect x="403.1" y="142" width="2.5" height="18" fill="url(#waveGrad)" rx="1.2" opacity="0.25"/>
    <rect x="413.5" y="139" width="2.5" height="21" fill="url(#waveGrad)" rx="1.2" opacity="0.25"/>
    <rect x="424.0" y="130" width="2.5" height="30" fill="url(#waveGrad)" rx="1.2" opacity="0.25"/>
    <rect x="434.4" y="127" width="2.5" height="33" fill="url(#waveGrad)" rx="1.2" opacity="0.25"/>
    <rect x="444.8" y="119" width="2.5" height="41" fill="url(#waveGrad)" rx="1.2" opacity="0.25"/>
    <rect x="455.2" y="107" width="2.5" height="53" fill="url(#waveGrad)" rx="1.2" opacity="0.25"/>
    <rect x="465.6" y="122" width="2.5" height="38" fill="url(#waveGrad)" rx="1.2" opacity="0.25"/>
    <rect x="476.0" y="138" width="2.5" height="22" fill="url(#waveGrad)" rx="1.2" opacity="0.25"/>
    <rect x="486.4" y="132" width="2.5" height="28" fill="url(#waveGrad)" rx="1.2" opacity="0.25"/>
    <rect x="496.8" y="147" width="2.5" height="13" fill="url(#waveGrad)" rx="1.2" opacity="0.25"/>
    <rect x="507.2" y="149" width="2.5" height="11" fill="url(#waveGrad)" rx="1.2" opacity="0.25"/>
    <rect x="517.6" y="153" width="2.5" height="7" fill="url(#waveGrad)" rx="1.2" opacity="0.25"/>
    <rect x="528.0" y="154" width="2.5" height="6" fill="url(#waveGrad)" rx="1.2" opacity="0.25"/>
    <rect x="538.4" y="153" width="2.5" height="7" fill="url(#waveGrad)" rx="1.2" opacity="0.25"/>
    <rect x="548.8" y="136" width="2.5" height="24" fill="url(#waveGrad)" rx="1.2" opacity="0.25"/>
    <rect x="559.2" y="137" width="2.5" height="23" fill="url(#waveGrad)" rx="1.2" opacity="0.25"/>
    <rect x="569.6" y="143" width="2.5" height="17" fill="url(#waveGrad)" rx="1.2" opacity="0.25"/>
    <rect x="580.0" y="119" width="2.5" height="41" fill="url(#waveGrad)" rx="1.2" opacity="0.25"/>
    <rect x="590.4" y="133" width="2.5" height="27" fill="url(#waveGrad)" rx="1.2" opacity="0.25"/>
    <rect x="600.8" y="131" width="2.5" height="29" fill="url(#waveGrad)" rx="1.2" opacity="0.25"/>
    <rect x="611.2" y="145" width="2.5" height="15" fill="url(#waveGrad)" rx="1.2" opacity="0.25"/>
    <rect x="621.6" y="145" width="2.5" height="15" fill="url(#waveGrad)" rx="1.2" opacity="0.25"/>
    <rect x="632.0" y="146" width="2.5" height="14" fill="url(#waveGrad)" rx="1.2" opacity="0.25"/>
    <rect x="642.4" y="156" width="2.5" height="4" fill="url(#waveGrad)" rx="1.2" opacity="0.25"/>
    <rect x="652.8" y="156" width="2.5" height="4" fill="url(#waveGrad)" rx="1.2" opacity="0.25"/>
    <rect x="663.2" y="156" width="2.5" height="4" fill="url(#waveGrad)" rx="1.2" opacity="0.25"/>
    <rect x="673.6" y="156" width="2.5" height="4" fill="url(#waveGrad)" rx="1.2" opacity="0.25"/>
    <rect x="684.0" y="153" width="2.5" height="7" fill="url(#waveGrad)" rx="1.2" opacity="0.25"/>
    <rect x="694.4" y="155" width="2.5" height="5" fill="url(#waveGrad)" rx="1.2" opacity="0.25"/>
    <rect x="704.8" y="149" width="2.5" height="11" fill="url(#waveGrad)" rx="1.2" opacity="0.25"/>
    <rect x="715.2" y="149" width="2.5" height="11" fill="url(#waveGrad)" rx="1.2" opacity="0.25"/>
    <rect x="725.6" y="155" width="2.5" height="5" fill="url(#waveGrad)" rx="1.2" opacity="0.25"/>
    <rect x="736.0" y="156" width="2.5" height="4" fill="url(#waveGrad)" rx="1.2" opacity="0.25"/>
    <rect x="746.4" y="156" width="2.5" height="4" fill="url(#waveGrad)" rx="1.2" opacity="0.25"/>
    <rect x="756.8" y="156" width="2.5" height="4" fill="url(#waveGrad)" rx="1.2" opacity="0.25"/>
    <rect x="767.2" y="156" width="2.5" height="4" fill="url(#waveGrad)" rx="1.2" opacity="0.25"/>
    <rect x="777.6" y="156" width="2.5" height="4" fill="url(#waveGrad)" rx="1.2" opacity="0.25"/>
    <rect x="788.0" y="156" width="2.5" height="4" fill="url(#waveGrad)" rx="1.2" opacity="0.25"/>
    <rect x="798.4" y="156" width="2.5" height="4" fill="url(#waveGrad)" rx="1.2" opacity="0.25"/>
    <rect x="808.8" y="156" width="2.5" height="4" fill="url(#waveGrad)" rx="1.2" opacity="0.25"/>
    <rect x="819.2" y="156" width="2.5" height="4" fill="url(#waveGrad)" rx="1.2" opacity="0.25"/>
    <rect x="829.6" y="156" width="2.5" height="4" fill="url(#waveGrad)" rx="1.2" opacity="0.25"/>
  </g>

  <!-- Name -->
  <text x="420" y="72" text-anchor="middle" fill="#e6edf3"
    font-family="'SF Mono','Fira Code','Cascadia Code',monospace" font-size="36" font-weight="700" letter-spacing="6">
    SEOYUL SON
  </text>

  <!-- Subtitle -->
  <text x="420" y="108" text-anchor="middle" fill="#7d8590"
    font-family="'SF Mono','Fira Code','Cascadia Code',monospace" font-size="14" letter-spacing="3">
    MUSICIAN × AI DEVELOPER
  </text>
</svg>