<svg width="840" height="220" xmlns="http://www.w3.org/2000/svg">
  <defs>
    <linearGradient id="waveGrad" x1="0%" y1="0%" x2="100%" y2="0%">
      <stop offset="0%" stop-color="#0969da"/>
      <stop offset="50%" stop-color="#8250df"/>
      <stop offset="100%" stop-color="#0969da"/>
    </linearGradient>
  </defs>

  <!-- Glow layer -->
  <g>
    <rect x="4.5" y="178" width="4.8" height="9" fill="url(#waveGrad)" rx="2" opacity="0.08"/>
    <rect x="12.9" y="178" width="4.8" height="9" fill="url(#waveGrad)" rx="2" opacity="0.08"/>
    <rect x="21.2" y="177" width="4.8" height="10" fill="url(#waveGrad)" rx="2" opacity="0.08"/>
    <rect x="29.6" y="178" width="4.8" height="9" fill="url(#waveGrad)" rx="2" opacity="0.08"/>
    <rect x="37.9" y="177" width="4.8" height="10" fill="url(#waveGrad)" rx="2" opacity="0.08"/>
    <rect x="46.3" y="178" width="4.8" height="9" fill="url(#waveGrad)" rx="2" opacity="0.08"/>
    <rect x="54.6" y="175" width="4.8" height="12" fill="url(#waveGrad)" rx="2" opacity="0.08"/>
    <rect x="63.0" y="178" width="4.8" height="9" fill="url(#waveGrad)" rx="2" opacity="0.08"/>
    <rect x="71.3" y="178" width="4.8" height="9" fill="url(#waveGrad)" rx="2" opacity="0.08"/>
    <rect x="79.6" y="178" width="4.8" height="9" fill="url(#waveGrad)" rx="2" opacity="0.08"/>
    <rect x="88.0" y="178" width="4.8" height="9" fill="url(#waveGrad)" rx="2" opacity="0.08"/>
    <rect x="96.3" y="178" width="4.8" height="9" fill="url(#waveGrad)" rx="2" opacity="0.08"/>
    <rect x="104.7" y="178" width="4.8" height="9" fill="url(#waveGrad)" rx="2" opacity="0.08"/>
    <rect x="113.0" y="178" width="4.8" height="9" fill="url(#waveGrad)" rx="2" opacity="0.08"/>
    <rect x="121.4" y="178" width="4.8" height="9" fill="url(#waveGrad)" rx="2" opacity="0.08"/>
    <rect x="129.7" y="174" width="4.8" height="13" fill="url(#waveGrad)" rx="2" opacity="0.08"/>
    <rect x="138.1" y="172" width="4.8" height="15" fill="url(#waveGrad)" rx="2" opacity="0.08"/>
    <rect x="146.4" y="167" width="4.8" height="20" fill="url(#waveGrad)" rx="2" opacity="0.08"/>
    <rect x="154.7" y="170" width="4.8" height="17" fill="url(#waveGrad)" rx="2" opacity="0.08"/>
    <rect x="163.1" y="156" width="4.8" height="31" fill="url(#waveGrad)" rx="2" opacity="0.08"/>
    <rect x="171.4" y="164" width="4.8" height="23" fill="url(#waveGrad)" rx="2" opacity="0.08"/>
    <rect x="179.8" y="165" width="4.8" height="22" fill="url(#waveGrad)" rx="2" opacity="0.08"/>
    <rect x="188.1" y="172" width="4.8" height="15" fill="url(#waveGrad)" rx="2" opacity="0.08"/>
    <rect x="196.5" y="178" width="4.8" height="9" fill="url(#waveGrad)" rx="2" opacity="0.08"/>
    <rect x="204.8" y="178" width="4.8" height="9" fill="url(#waveGrad)" rx="2" opacity="0.08"/>
    <rect x="213.2" y="178" width="4.8" height="9" fill="url(#waveGrad)" rx="2" opacity="0.08"/>
    <rect x="221.5" y="178" width="4.8" height="9" fill="url(#waveGrad)" rx="2" opacity="0.08"/>
    <rect x="229.8" y="176" width="4.8" height="11" fill="url(#waveGrad)" rx="2" opacity="0.08"/>
    <rect x="238.2" y="168" width="4.8" height="19" fill="url(#waveGrad)" rx="2" opacity="0.08"/>
    <rect x="246.5" y="159" width="4.8" height="28" fill="url(#waveGrad)" rx="2" opacity="0.08"/>
    <rect x="254.9" y="158" width="4.8" height="29" fill="url(#waveGrad)" rx="2" opacity="0.08"/>
    <rect x="263.2" y="162" width="4.8" height="25" fill="url(#waveGrad)" rx="2" opacity="0.08"/>
    <rect x="271.6" y="160" width="4.8" height="27" fill="url(#waveGrad)" rx="2" opacity="0.08"/>
    <rect x="279.9" y="121" width="4.8" height="66" fill="url(#waveGrad)" rx="2" opacity="0.08"/>
    <rect x="288.3" y="132" width="4.8" height="55" fill="url(#waveGrad)" rx="2" opacity="0.08"/>
    <rect x="296.6" y="147" width="4.8" height="40" fill="url(#waveGrad)" rx="2" opacity="0.08"/>
    <rect x="304.9" y="164" width="4.8" height="23" fill="url(#waveGrad)" rx="2" opacity="0.08"/>
    <rect x="313.3" y="173" width="4.8" height="14" fill="url(#waveGrad)" rx="2" opacity="0.08"/>
    <rect x="321.6" y="178" width="4.8" height="9" fill="url(#waveGrad)" rx="2" opacity="0.08"/>
    <rect x="330.0" y="178" width="4.8" height="9" fill="url(#waveGrad)" rx="2" opacity="0.08"/>
    <rect x="338.3" y="178" width="4.8" height="9" fill="url(#waveGrad)" rx="2" opacity="0.08"/>
    <rect x="346.7" y="175" width="4.8" height="12" fill="url(#waveGrad)" rx="2" opacity="0.08"/>
    <rect x="355.0" y="164" width="4.8" height="23" fill="url(#waveGrad)" rx="2" opacity="0.08"/>
    <rect x="363.4" y="142" width="4.8" height="45" fill="url(#waveGrad)" rx="2" opacity="0.08"/>
    <rect x="371.7" y="141" width="4.8" height="46" fill="url(#waveGrad)" rx="2" opacity="0.08"/>
    <rect x="380.0" y="151" width="4.8" height="36" fill="url(#waveGrad)" rx="2" opacity="0.08"/>
    <rect x="388.4" y="122" width="4.8" height="65" fill="url(#waveGrad)" rx="2" opacity="0.08"/>
    <rect x="396.7" y="145" width="4.8" height="42" fill="url(#waveGrad)" rx="2" opacity="0.08"/>
    <rect x="405.1" y="137" width="4.8" height="50" fill="url(#waveGrad)" rx="2" opacity="0.08"/>
    <rect x="413.4" y="153" width="4.8" height="34" fill="url(#waveGrad)" rx="2" opacity="0.08"/>
    <rect x="421.8" y="167" width="4.8" height="20" fill="url(#waveGrad)" rx="2" opacity="0.08"/>
    <rect x="430.1" y="177" width="4.8" height="10" fill="url(#waveGrad)" rx="2" opacity="0.08"/>
    <rect x="438.5" y="178" width="4.8" height="9" fill="url(#waveGrad)" rx="2" opacity="0.08"/>
    <rect x="446.8" y="178" width="4.8" height="9" fill="url(#waveGrad)" rx="2" opacity="0.08"/>
    <rect x="455.2" y="178" width="4.8" height="9" fill="url(#waveGrad)" rx="2" opacity="0.08"/>
    <rect x="463.5" y="168" width="4.8" height="19" fill="url(#waveGrad)" rx="2" opacity="0.08"/>
    <rect x="471.8" y="163" width="4.8" height="24" fill="url(#waveGrad)" rx="2" opacity="0.08"/>
    <rect x="480.2" y="143" width="4.8" height="44" fill="url(#waveGrad)" rx="2" opacity="0.08"/>
    <rect x="488.5" y="152" width="4.8" height="35" fill="url(#waveGrad)" rx="2" opacity="0.08"/>
    <rect x="496.9" y="129" width="4.8" height="58" fill="url(#waveGrad)" rx="2" opacity="0.08"/>
    <rect x="505.2" y="104" width="4.8" height="83" fill="url(#waveGrad)" rx="2" opacity="0.08"/>
    <rect x="513.6" y="148" width="4.8" height="39" fill="url(#waveGrad)" rx="2" opacity="0.08"/>
    <rect x="521.9" y="133" width="4.8" height="54" fill="url(#waveGrad)" rx="2" opacity="0.08"/>
    <rect x="530.3" y="154" width="4.8" height="33" fill="url(#waveGrad)" rx="2" opacity="0.08"/>
    <rect x="538.6" y="164" width="4.8" height="23" fill="url(#waveGrad)" rx="2" opacity="0.08"/>
    <rect x="546.9" y="171" width="4.8" height="16" fill="url(#waveGrad)" rx="2" opacity="0.08"/>
    <rect x="555.3" y="178" width="4.8" height="9" fill="url(#waveGrad)" rx="2" opacity="0.08"/>
    <rect x="563.6" y="178" width="4.8" height="9" fill="url(#waveGrad)" rx="2" opacity="0.08"/>
    <rect x="572.0" y="178" width="4.8" height="9" fill="url(#waveGrad)" rx="2" opacity="0.08"/>
    <rect x="580.3" y="178" width="4.8" height="9" fill="url(#waveGrad)" rx="2" opacity="0.08"/>
    <rect x="588.7" y="176" width="4.8" height="11" fill="url(#waveGrad)" rx="2" opacity="0.08"/>
    <rect x="597.0" y="170" width="4.8" height="17" fill="url(#waveGrad)" rx="2" opacity="0.08"/>
    <rect x="605.4" y="152" width="4.8" height="35" fill="url(#waveGrad)" rx="2" opacity="0.08"/>
    <rect x="613.7" y="156" width="4.8" height="31" fill="url(#waveGrad)" rx="2" opacity="0.08"/>
    <rect x="622.0" y="159" width="4.8" height="28" fill="url(#waveGrad)" rx="2" opacity="0.08"/>
    <rect x="630.4" y="153" width="4.8" height="34" fill="url(#waveGrad)" rx="2" opacity="0.08"/>
    <rect x="638.7" y="158" width="4.8" height="29" fill="url(#waveGrad)" rx="2" opacity="0.08"/>
    <rect x="647.1" y="172" width="4.8" height="15" fill="url(#waveGrad)" rx="2" opacity="0.08"/>
    <rect x="655.4" y="166" width="4.8" height="21" fill="url(#waveGrad)" rx="2" opacity="0.08"/>
    <rect x="663.8" y="178" width="4.8" height="9" fill="url(#waveGrad)" rx="2" opacity="0.08"/>
    <rect x="672.1" y="178" width="4.8" height="9" fill="url(#waveGrad)" rx="2" opacity="0.08"/>
    <rect x="680.5" y="178" width="4.8" height="9" fill="url(#waveGrad)" rx="2" opacity="0.08"/>
    <rect x="688.8" y="178" width="4.8" height="9" fill="url(#waveGrad)" rx="2" opacity="0.08"/>
    <rect x="697.1" y="178" width="4.8" height="9" fill="url(#waveGrad)" rx="2" opacity="0.08"/>
    <rect x="705.5" y="178" width="4.8" height="9" fill="url(#waveGrad)" rx="2" opacity="0.08"/>
    <rect x="713.8" y="175" width="4.8" height="12" fill="url(#waveGrad)" rx="2" opacity="0.08"/>
    <rect x="722.2" y="168" width="4.8" height="19" fill="url(#waveGrad)" rx="2" opacity="0.08"/>
    <rect x="730.5" y="171" width="4.8" height="16" fill="url(#waveGrad)" rx="2" opacity="0.08"/>
    <rect x="738.9" y="165" width="4.8" height="22" fill="url(#waveGrad)" rx="2" opacity="0.08"/>
    <rect x="747.2" y="174" width="4.8" height="13" fill="url(#waveGrad)" rx="2" opacity="0.08"/>
    <rect x="755.6" y="171" width="4.8" height="16" fill="url(#waveGrad)" rx="2" opacity="0.08"/>
    <rect x="763.9" y="174" width="4.8" height="13" fill="url(#waveGrad)" rx="2" opacity="0.08"/>
    <rect x="772.2" y="178" width="4.8" height="9" fill="url(#waveGrad)" rx="2" opacity="0.08"/>
    <rect x="780.6" y="178" width="4.8" height="9" fill="url(#waveGrad)" rx="2" opacity="0.08"/>
    <rect x="788.9" y="178" width="4.8" height="9" fill="url(#waveGrad)" rx="2" opacity="0.08"/>
    <rect x="797.3" y="178" width="4.8" height="9" fill="url(#waveGrad)" rx="2" opacity="0.08"/>
    <rect x="805.6" y="178" width="4.8" height="9" fill="url(#waveGrad)" rx="2" opacity="0.08"/>
    <rect x="814.0" y="178" width="4.8" height="9" fill="url(#waveGrad)" rx="2" opacity="0.08"/>
    <rect x="822.3" y="178" width="4.8" height="9" fill="url(#waveGrad)" rx="2" opacity="0.08"/>
    <rect x="830.7" y="178" width="4.8" height="9" fill="url(#waveGrad)" rx="2" opacity="0.08"/>
  </g>

  <!-- Main bars -->
  <g>
    <rect x="5.5" y="180" width="2.8" height="5" fill="url(#waveGrad)" rx="1.4" opacity="0.4"/>
    <rect x="13.9" y="180" width="2.8" height="5" fill="url(#waveGrad)" rx="1.4" opacity="0.4"/>
    <rect x="22.2" y="179" width="2.8" height="6" fill="url(#waveGrad)" rx="1.4" opacity="0.4"/>
    <rect x="30.6" y="180" width="2.8" height="5" fill="url(#waveGrad)" rx="1.4" opacity="0.4"/>
    <rect x="38.9" y="179" width="2.8" height="6" fill="url(#waveGrad)" rx="1.4" opacity="0.4"/>
    <rect x="47.3" y="180" width="2.8" height="5" fill="url(#waveGrad)" rx="1.4" opacity="0.4"/>
    <rect x="55.6" y="177" width="2.8" height="8" fill="url(#waveGrad)" rx="1.4" opacity="0.4"/>
    <rect x="64.0" y="180" width="2.8" height="5" fill="url(#waveGrad)" rx="1.4" opacity="0.4"/>
    <rect x="72.3" y="180" width="2.8" height="5" fill="url(#waveGrad)" rx="1.4" opacity="0.4"/>
    <rect x="80.6" y="180" width="2.8" height="5" fill="url(#waveGrad)" rx="1.4" opacity="0.4"/>
    <rect x="89.0" y="180" width="2.8" height="5" fill="url(#waveGrad)" rx="1.4" opacity="0.4"/>
    <rect x="97.3" y="180" width="2.8" height="5" fill="url(#waveGrad)" rx="1.4" opacity="0.4"/>
    <rect x="105.7" y="180" width="2.8" height="5" fill="url(#waveGrad)" rx="1.4" opacity="0.4"/>
    <rect x="114.0" y="180" width="2.8" height="5" fill="url(#waveGrad)" rx="1.4" opacity="0.4"/>
    <rect x="122.4" y="180" width="2.8" height="5" fill="url(#waveGrad)" rx="1.4" opacity="0.4"/>
    <rect x="130.7" y="176" width="2.8" height="9" fill="url(#waveGrad)" rx="1.4" opacity="0.4"/>
    <rect x="139.1" y="174" width="2.8" height="11" fill="url(#waveGrad)" rx="1.4" opacity="0.4"/>
    <rect x="147.4" y="169" width="2.8" height="16" fill="url(#waveGrad)" rx="1.4" opacity="0.4"/>
    <rect x="155.7" y="172" width="2.8" height="13" fill="url(#waveGrad)" rx="1.4" opacity="0.4"/>
    <rect x="164.1" y="158" width="2.8" height="27" fill="url(#waveGrad)" rx="1.4" opacity="0.4"/>
    <rect x="172.4" y="166" width="2.8" height="19" fill="url(#waveGrad)" rx="1.4" opacity="0.4"/>
    <rect x="180.8" y="167" width="2.8" height="18" fill="url(#waveGrad)" rx="1.4" opacity="0.4"/>
    <rect x="189.1" y="174" width="2.8" height="11" fill="url(#waveGrad)" rx="1.4" opacity="0.4"/>
    <rect x="197.5" y="180" width="2.8" height="5" fill="url(#waveGrad)" rx="1.4" opacity="0.4"/>
    <rect x="205.8" y="180" width="2.8" height="5" fill="url(#waveGrad)" rx="1.4" opacity="0.4"/>
    <rect x="214.2" y="180" width="2.8" height="5" fill="url(#waveGrad)" rx="1.4" opacity="0.4"/>
    <rect x="222.5" y="180" width="2.8" height="5" fill="url(#waveGrad)" rx="1.4" opacity="0.4"/>
    <rect x="230.8" y="178" width="2.8" height="7" fill="url(#waveGrad)" rx="1.4" opacity="0.4"/>
    <rect x="239.2" y="170" width="2.8" height="15" fill="url(#waveGrad)" rx="1.4" opacity="0.4"/>
    <rect x="247.5" y="161" width="2.8" height="24" fill="url(#waveGrad)" rx="1.4" opacity="0.4"/>
    <rect x="255.9" y="160" width="2.8" height="25" fill="url(#waveGrad)" rx="1.4" opacity="0.4"/>
    <rect x="264.2" y="164" width="2.8" height="21" fill="url(#waveGrad)" rx="1.4" opacity="0.4"/>
    <rect x="272.6" y="162" width="2.8" height="23" fill="url(#waveGrad)" rx="1.4" opacity="0.4"/>
    <rect x="280.9" y="123" width="2.8" height="62" fill="url(#waveGrad)" rx="1.4" opacity="0.4"/>
    <rect x="289.3" y="134" width="2.8" height="51" fill="url(#waveGrad)" rx="1.4" opacity="0.4"/>
    <rect x="297.6" y="149" width="2.8" height="36" fill="url(#waveGrad)" rx="1.4" opacity="0.4"/>
    <rect x="305.9" y="166" width="2.8" height="19" fill="url(#waveGrad)" rx="1.4" opacity="0.4"/>
    <rect x="314.3" y="175" width="2.8" height="10" fill="url(#waveGrad)" rx="1.4" opacity="0.4"/>
    <rect x="322.6" y="180" width="2.8" height="5" fill="url(#waveGrad)" rx="1.4" opacity="0.4"/>
    <rect x="331.0" y="180" width="2.8" height="5" fill="url(#waveGrad)" rx="1.4" opacity="0.4"/>
    <rect x="339.3" y="180" width="2.8" height="5" fill="url(#waveGrad)" rx="1.4" opacity="0.4"/>
    <rect x="347.7" y="177" width="2.8" height="8" fill="url(#waveGrad)" rx="1.4" opacity="0.4"/>
    <rect x="356.0" y="166" width="2.8" height="19" fill="url(#waveGrad)" rx="1.4" opacity="0.4"/>
    <rect x="364.4" y="144" width="2.8" height="41" fill="url(#waveGrad)" rx="1.4" opacity="0.4"/>
    <rect x="372.7" y="143" width="2.8" height="42" fill="url(#waveGrad)" rx="1.4" opacity="0.4"/>
    <rect x="381.0" y="153" width="2.8" height="32" fill="url(#waveGrad)" rx="1.4" opacity="0.4"/>
    <rect x="389.4" y="124" width="2.8" height="61" fill="url(#waveGrad)" rx="1.4" opacity="0.4"/>
    <rect x="397.7" y="147" width="2.8" height="38" fill="url(#waveGrad)" rx="1.4" opacity="0.4"/>
    <rect x="406.1" y="139" width="2.8" height="46" fill="url(#waveGrad)" rx="1.4" opacity="0.4"/>
    <rect x="414.4" y="155" width="2.8" height="30" fill="url(#waveGrad)" rx="1.4" opacity="0.4"/>
    <rect x="422.8" y="169" width="2.8" height="16" fill="url(#waveGrad)" rx="1.4" opacity="0.4"/>
    <rect x="431.1" y="179" width="2.8" height="6" fill="url(#waveGrad)" rx="1.4" opacity="0.4"/>
    <rect x="439.5" y="180" width="2.8" height="5" fill="url(#waveGrad)" rx="1.4" opacity="0.4"/>
    <rect x="447.8" y="180" width="2.8" height="5" fill="url(#waveGrad)" rx="1.4" opacity="0.4"/>
    <rect x="456.2" y="180" width="2.8" height="5" fill="url(#waveGrad)" rx="1.4" opacity="0.4"/>
    <rect x="464.5" y="170" width="2.8" height="15" fill="url(#waveGrad)" rx="1.4" opacity="0.4"/>
    <rect x="472.8" y="165" width="2.8" height="20" fill="url(#waveGrad)" rx="1.4" opacity="0.4"/>
    <rect x="481.2" y="145" width="2.8" height="40" fill="url(#waveGrad)" rx="1.4" opacity="0.4"/>
    <rect x="489.5" y="154" width="2.8" height="31" fill="url(#waveGrad)" rx="1.4" opacity="0.4"/>
    <rect x="497.9" y="131" width="2.8" height="54" fill="url(#waveGrad)" rx="1.4" opacity="0.4"/>
    <rect x="506.2" y="106" width="2.8" height="79" fill="url(#waveGrad)" rx="1.4" opacity="0.4"/>
    <rect x="514.6" y="150" width="2.8" height="35" fill="url(#waveGrad)" rx="1.4" opacity="0.4"/>
    <rect x="522.9" y="135" width="2.8" height="50" fill="url(#waveGrad)" rx="1.4" opacity="0.4"/>
    <rect x="531.3" y="156" width="2.8" height="29" fill="url(#waveGrad)" rx="1.4" opacity="0.4"/>
    <rect x="539.6" y="166" width="2.8" height="19" fill="url(#waveGrad)" rx="1.4" opacity="0.4"/>
    <rect x="547.9" y="173" width="2.8" height="12" fill="url(#waveGrad)" rx="1.4" opacity="0.4"/>
    <rect x="556.3" y="180" width="2.8" height="5" fill="url(#waveGrad)" rx="1.4" opacity="0.4"/>
    <rect x="564.6" y="180" width="2.8" height="5" fill="url(#waveGrad)" rx="1.4" opacity="0.4"/>
    <rect x="573.0" y="180" width="2.8" height="5" fill="url(#waveGrad)" rx="1.4" opacity="0.4"/>
    <rect x="581.3" y="180" width="2.8" height="5" fill="url(#waveGrad)" rx="1.4" opacity="0.4"/>
    <rect x="589.7" y="178" width="2.8" height="7" fill="url(#waveGrad)" rx="1.4" opacity="0.4"/>
    <rect x="598.0" y="172" width="2.8" height="13" fill="url(#waveGrad)" rx="1.4" opacity="0.4"/>
    <rect x="606.4" y="154" width="2.8" height="31" fill="url(#waveGrad)" rx="1.4" opacity="0.4"/>
    <rect x="614.7" y="158" width="2.8" height="27" fill="url(#waveGrad)" rx="1.4" opacity="0.4"/>
    <rect x="623.0" y="161" width="2.8" height="24" fill="url(#waveGrad)" rx="1.4" opacity="0.4"/>
    <rect x="631.4" y="155" width="2.8" height="30" fill="url(#waveGrad)" rx="1.4" opacity="0.4"/>
    <rect x="639.7" y="160" width="2.8" height="25" fill="url(#waveGrad)" rx="1.4" opacity="0.4"/>
    <rect x="648.1" y="174" width="2.8" height="11" fill="url(#waveGrad)" rx="1.4" opacity="0.4"/>
    <rect x="656.4" y="168" width="2.8" height="17" fill="url(#waveGrad)" rx="1.4" opacity="0.4"/>
    <rect x="664.8" y="180" width="2.8" height="5" fill="url(#waveGrad)" rx="1.4" opacity="0.4"/>
    <rect x="673.1" y="180" width="2.8" height="5" fill="url(#waveGrad)" rx="1.4" opacity="0.4"/>
    <rect x="681.5" y="180" width="2.8" height="5" fill="url(#waveGrad)" rx="1.4" opacity="0.4"/>
    <rect x="689.8" y="180" width="2.8" height="5" fill="url(#waveGrad)" rx="1.4" opacity="0.4"/>
    <rect x="698.1" y="180" width="2.8" height="5" fill="url(#waveGrad)" rx="1.4" opacity="0.4"/>
    <rect x="706.5" y="180" width="2.8" height="5" fill="url(#waveGrad)" rx="1.4" opacity="0.4"/>
    <rect x="714.8" y="177" width="2.8" height="8" fill="url(#waveGrad)" rx="1.4" opacity="0.4"/>
    <rect x="723.2" y="170" width="2.8" height="15" fill="url(#waveGrad)" rx="1.4" opacity="0.4"/>
    <rect x="731.5" y="173" width="2.8" height="12" fill="url(#waveGrad)" rx="1.4" opacity="0.4"/>
    <rect x="739.9" y="167" width="2.8" height="18" fill="url(#waveGrad)" rx="1.4" opacity="0.4"/>
    <rect x="748.2" y="176" width="2.8" height="9" fill="url(#waveGrad)" rx="1.4" opacity="0.4"/>
    <rect x="756.6" y="173" width="2.8" height="12" fill="url(#waveGrad)" rx="1.4" opacity="0.4"/>
    <rect x="764.9" y="176" width="2.8" height="9" fill="url(#waveGrad)" rx="1.4" opacity="0.4"/>
    <rect x="773.2" y="180" width="2.8" height="5" fill="url(#waveGrad)" rx="1.4" opacity="0.4"/>
    <rect x="781.6" y="180" width="2.8" height="5" fill="url(#waveGrad)" rx="1.4" opacity="0.4"/>
    <rect x="789.9" y="180" width="2.8" height="5" fill="url(#waveGrad)" rx="1.4" opacity="0.4"/>
    <rect x="798.3" y="180" width="2.8" height="5" fill="url(#waveGrad)" rx="1.4" opacity="0.4"/>
    <rect x="806.6" y="180" width="2.8" height="5" fill="url(#waveGrad)" rx="1.4" opacity="0.4"/>
    <rect x="815.0" y="180" width="2.8" height="5" fill="url(#waveGrad)" rx="1.4" opacity="0.4"/>
    <rect x="823.3" y="180" width="2.8" height="5" fill="url(#waveGrad)" rx="1.4" opacity="0.4"/>
    <rect x="831.7" y="180" width="2.8" height="5" fill="url(#waveGrad)" rx="1.4" opacity="0.4"/>
  </g>

  <!-- Name -->
  <text x="420" y="75" text-anchor="middle" fill="#1f2328"
    font-family="'SF Mono','Fira Code','Cascadia Code',monospace" font-size="38" font-weight="700" letter-spacing="8">
    SEOYUL SON
  </text>

  <!-- Subtitle -->
  <text x="420" y="112" text-anchor="middle" fill="#656d76"
    font-family="'SF Mono','Fira Code','Cascadia Code',monospace" font-size="13" letter-spacing="4">
    MUSICIAN × AI DEVELOPER
  </text>
</svg>