<svg width="840" height="160" xmlns="http://www.w3.org/2000/svg">
  <defs>
    <linearGradient id="waveGrad" x1="0%" y1="0%" x2="100%" y2="0%">
      <stop offset="0%" stop-color="#0969da"/>
      <stop offset="50%" stop-color="#8250df"/>
      <stop offset="100%" stop-color="#0969da"/>
    </linearGradient>
  </defs>

  <!-- Glow -->
  <g>
    <rect x="3.1" y="138" width="5.4" height="10" fill="url(#waveGrad)" rx="2.5" opacity="0.06"/>
    <rect x="10.0" y="135" width="5.4" height="13" fill="url(#waveGrad)" rx="2.5" opacity="0.06"/>
    <rect x="17.0" y="130" width="5.4" height="18" fill="url(#waveGrad)" rx="2.5" opacity="0.06"/>
    <rect x="23.9" y="134" width="5.4" height="14" fill="url(#waveGrad)" rx="2.5" opacity="0.06"/>
    <rect x="30.9" y="131" width="5.4" height="17" fill="url(#waveGrad)" rx="2.5" opacity="0.06"/>
    <rect x="37.9" y="134" width="5.4" height="14" fill="url(#waveGrad)" rx="2.5" opacity="0.06"/>
    <rect x="44.8" y="125" width="5.4" height="23" fill="url(#waveGrad)" rx="2.5" opacity="0.06"/>
    <rect x="51.8" y="133" width="5.4" height="15" fill="url(#waveGrad)" rx="2.5" opacity="0.06"/>
    <rect x="58.8" y="136" width="5.4" height="12" fill="url(#waveGrad)" rx="2.5" opacity="0.06"/>
    <rect x="65.7" y="138" width="5.4" height="10" fill="url(#waveGrad)" rx="2.5" opacity="0.06"/>
    <rect x="72.7" y="138" width="5.4" height="10" fill="url(#waveGrad)" rx="2.5" opacity="0.06"/>
    <rect x="79.6" y="138" width="5.4" height="10" fill="url(#waveGrad)" rx="2.5" opacity="0.06"/>
    <rect x="86.6" y="138" width="5.4" height="10" fill="url(#waveGrad)" rx="2.5" opacity="0.06"/>
    <rect x="93.6" y="138" width="5.4" height="10" fill="url(#waveGrad)" rx="2.5" opacity="0.06"/>
    <rect x="100.5" y="137" width="5.4" height="11" fill="url(#waveGrad)" rx="2.5" opacity="0.06"/>
    <rect x="107.5" y="133" width="5.4" height="15" fill="url(#waveGrad)" rx="2.5" opacity="0.06"/>
    <rect x="114.5" y="130" width="5.4" height="18" fill="url(#waveGrad)" rx="2.5" opacity="0.06"/>
    <rect x="121.4" y="124" width="5.4" height="24" fill="url(#waveGrad)" rx="2.5" opacity="0.06"/>
    <rect x="128.4" y="127" width="5.4" height="21" fill="url(#waveGrad)" rx="2.5" opacity="0.06"/>
    <rect x="135.3" y="104" width="5.4" height="44" fill="url(#waveGrad)" rx="2.5" opacity="0.06"/>
    <rect x="142.3" y="114" width="5.4" height="34" fill="url(#waveGrad)" rx="2.5" opacity="0.06"/>
    <rect x="149.3" y="110" width="5.4" height="38" fill="url(#waveGrad)" rx="2.5" opacity="0.06"/>
    <rect x="156.2" y="119" width="5.4" height="29" fill="url(#waveGrad)" rx="2.5" opacity="0.06"/>
    <rect x="163.2" y="136" width="5.4" height="12" fill="url(#waveGrad)" rx="2.5" opacity="0.06"/>
    <rect x="170.1" y="136" width="5.4" height="12" fill="url(#waveGrad)" rx="2.5" opacity="0.06"/>
    <rect x="177.1" y="138" width="5.4" height="10" fill="url(#waveGrad)" rx="2.5" opacity="0.06"/>
    <rect x="184.1" y="138" width="5.4" height="10" fill="url(#waveGrad)" rx="2.5" opacity="0.06"/>
    <rect x="191.0" y="138" width="5.4" height="10" fill="url(#waveGrad)" rx="2.5" opacity="0.06"/>
    <rect x="198.0" y="136" width="5.4" height="12" fill="url(#waveGrad)" rx="2.5" opacity="0.06"/>
    <rect x="205.0" y="129" width="5.4" height="19" fill="url(#waveGrad)" rx="2.5" opacity="0.06"/>
    <rect x="211.9" y="125" width="5.4" height="23" fill="url(#waveGrad)" rx="2.5" opacity="0.06"/>
    <rect x="218.9" y="126" width="5.4" height="22" fill="url(#waveGrad)" rx="2.5" opacity="0.06"/>
    <rect x="225.8" y="122" width="5.4" height="26" fill="url(#waveGrad)" rx="2.5" opacity="0.06"/>
    <rect x="232.8" y="69" width="5.4" height="79" fill="url(#waveGrad)" rx="2.5" opacity="0.06"/>
    <rect x="239.8" y="71" width="5.4" height="77" fill="url(#waveGrad)" rx="2.5" opacity="0.06"/>
    <rect x="246.7" y="82" width="5.4" height="66" fill="url(#waveGrad)" rx="2.5" opacity="0.06"/>
    <rect x="253.7" y="101" width="5.4" height="47" fill="url(#waveGrad)" rx="2.5" opacity="0.06"/>
    <rect x="260.7" y="105" width="5.4" height="43" fill="url(#waveGrad)" rx="2.5" opacity="0.06"/>
    <rect x="267.6" y="122" width="5.4" height="26" fill="url(#waveGrad)" rx="2.5" opacity="0.06"/>
    <rect x="274.6" y="135" width="5.4" height="13" fill="url(#waveGrad)" rx="2.5" opacity="0.06"/>
    <rect x="281.5" y="138" width="5.4" height="10" fill="url(#waveGrad)" rx="2.5" opacity="0.06"/>
    <rect x="288.5" y="138" width="5.4" height="10" fill="url(#waveGrad)" rx="2.5" opacity="0.06"/>
    <rect x="295.5" y="138" width="5.4" height="10" fill="url(#waveGrad)" rx="2.5" opacity="0.06"/>
    <rect x="302.4" y="130" width="5.4" height="18" fill="url(#waveGrad)" rx="2.5" opacity="0.06"/>
    <rect x="309.4" y="123" width="5.4" height="25" fill="url(#waveGrad)" rx="2.5" opacity="0.06"/>
    <rect x="316.4" y="123" width="5.4" height="25" fill="url(#waveGrad)" rx="2.5" opacity="0.06"/>
    <rect x="323.3" y="91" width="5.4" height="57" fill="url(#waveGrad)" rx="2.5" opacity="0.06"/>
    <rect x="330.3" y="104" width="5.4" height="44" fill="url(#waveGrad)" rx="2.5" opacity="0.06"/>
    <rect x="337.2" y="80" width="5.4" height="68" fill="url(#waveGrad)" rx="2.5" opacity="0.06"/>
    <rect x="344.2" y="89" width="5.4" height="59" fill="url(#waveGrad)" rx="2.5" opacity="0.06"/>
    <rect x="351.2" y="102" width="5.4" height="46" fill="url(#waveGrad)" rx="2.5" opacity="0.06"/>
    <rect x="358.1" y="116" width="5.4" height="32" fill="url(#waveGrad)" rx="2.5" opacity="0.06"/>
    <rect x="365.1" y="88" width="5.4" height="60" fill="url(#waveGrad)" rx="2.5" opacity="0.06"/>
    <rect x="372.0" y="120" width="5.4" height="28" fill="url(#waveGrad)" rx="2.5" opacity="0.06"/>
    <rect x="379.0" y="137" width="5.4" height="11" fill="url(#waveGrad)" rx="2.5" opacity="0.06"/>
    <rect x="386.0" y="138" width="5.4" height="10" fill="url(#waveGrad)" rx="2.5" opacity="0.06"/>
    <rect x="392.9" y="138" width="5.4" height="10" fill="url(#waveGrad)" rx="2.5" opacity="0.06"/>
    <rect x="399.9" y="137" width="5.4" height="11" fill="url(#waveGrad)" rx="2.5" opacity="0.06"/>
    <rect x="406.9" y="133" width="5.4" height="15" fill="url(#waveGrad)" rx="2.5" opacity="0.06"/>
    <rect x="413.8" y="113" width="5.4" height="35" fill="url(#waveGrad)" rx="2.5" opacity="0.06"/>
    <rect x="420.8" y="76" width="5.4" height="72" fill="url(#waveGrad)" rx="2.5" opacity="0.06"/>
    <rect x="427.7" y="105" width="5.4" height="43" fill="url(#waveGrad)" rx="2.5" opacity="0.06"/>
    <rect x="434.7" y="63" width="5.4" height="85" fill="url(#waveGrad)" rx="2.5" opacity="0.06"/>
    <rect x="441.7" y="79" width="5.4" height="69" fill="url(#waveGrad)" rx="2.5" opacity="0.06"/>
    <rect x="448.6" y="78" width="5.4" height="70" fill="url(#waveGrad)" rx="2.5" opacity="0.06"/>
    <rect x="455.6" y="65" width="5.4" height="83" fill="url(#waveGrad)" rx="2.5" opacity="0.06"/>
    <rect x="462.6" y="111" width="5.4" height="37" fill="url(#waveGrad)" rx="2.5" opacity="0.06"/>
    <rect x="469.5" y="97" width="5.4" height="51" fill="url(#waveGrad)" rx="2.5" opacity="0.06"/>
    <rect x="476.5" y="117" width="5.4" height="31" fill="url(#waveGrad)" rx="2.5" opacity="0.06"/>
    <rect x="483.4" y="138" width="5.4" height="10" fill="url(#waveGrad)" rx="2.5" opacity="0.06"/>
    <rect x="490.4" y="138" width="5.4" height="10" fill="url(#waveGrad)" rx="2.5" opacity="0.06"/>
    <rect x="497.4" y="138" width="5.4" height="10" fill="url(#waveGrad)" rx="2.5" opacity="0.06"/>
    <rect x="504.3" y="137" width="5.4" height="11" fill="url(#waveGrad)" rx="2.5" opacity="0.06"/>
    <rect x="511.3" y="130" width="5.4" height="18" fill="url(#waveGrad)" rx="2.5" opacity="0.06"/>
    <rect x="518.2" y="123" width="5.4" height="25" fill="url(#waveGrad)" rx="2.5" opacity="0.06"/>
    <rect x="525.2" y="103" width="5.4" height="45" fill="url(#waveGrad)" rx="2.5" opacity="0.06"/>
    <rect x="532.2" y="91" width="5.4" height="57" fill="url(#waveGrad)" rx="2.5" opacity="0.06"/>
    <rect x="539.1" y="110" width="5.4" height="38" fill="url(#waveGrad)" rx="2.5" opacity="0.06"/>
    <rect x="546.1" y="53" width="5.4" height="95" fill="url(#waveGrad)" rx="2.5" opacity="0.06"/>
    <rect x="553.1" y="96" width="5.4" height="52" fill="url(#waveGrad)" rx="2.5" opacity="0.06"/>
    <rect x="560.0" y="81" width="5.4" height="67" fill="url(#waveGrad)" rx="2.5" opacity="0.06"/>
    <rect x="567.0" y="115" width="5.4" height="33" fill="url(#waveGrad)" rx="2.5" opacity="0.06"/>
    <rect x="573.9" y="113" width="5.4" height="35" fill="url(#waveGrad)" rx="2.5" opacity="0.06"/>
    <rect x="580.9" y="123" width="5.4" height="25" fill="url(#waveGrad)" rx="2.5" opacity="0.06"/>
    <rect x="587.9" y="138" width="5.4" height="10" fill="url(#waveGrad)" rx="2.5" opacity="0.06"/>
    <rect x="594.8" y="138" width="5.4" height="10" fill="url(#waveGrad)" rx="2.5" opacity="0.06"/>
    <rect x="601.8" y="138" width="5.4" height="10" fill="url(#waveGrad)" rx="2.5" opacity="0.06"/>
    <rect x="608.8" y="138" width="5.4" height="10" fill="url(#waveGrad)" rx="2.5" opacity="0.06"/>
    <rect x="615.7" y="125" width="5.4" height="23" fill="url(#waveGrad)" rx="2.5" opacity="0.06"/>
    <rect x="622.7" y="127" width="5.4" height="21" fill="url(#waveGrad)" rx="2.5" opacity="0.06"/>
    <rect x="629.6" y="106" width="5.4" height="42" fill="url(#waveGrad)" rx="2.5" opacity="0.06"/>
    <rect x="636.6" y="94" width="5.4" height="54" fill="url(#waveGrad)" rx="2.5" opacity="0.06"/>
    <rect x="643.6" y="94" width="5.4" height="54" fill="url(#waveGrad)" rx="2.5" opacity="0.06"/>
    <rect x="650.5" y="102" width="5.4" height="46" fill="url(#waveGrad)" rx="2.5" opacity="0.06"/>
    <rect x="657.5" y="95" width="5.4" height="53" fill="url(#waveGrad)" rx="2.5" opacity="0.06"/>
    <rect x="664.5" y="112" width="5.4" height="36" fill="url(#waveGrad)" rx="2.5" opacity="0.06"/>
    <rect x="671.4" y="125" width="5.4" height="23" fill="url(#waveGrad)" rx="2.5" opacity="0.06"/>
    <rect x="678.4" y="131" width="5.4" height="17" fill="url(#waveGrad)" rx="2.5" opacity="0.06"/>
    <rect x="685.3" y="137" width="5.4" height="11" fill="url(#waveGrad)" rx="2.5" opacity="0.06"/>
    <rect x="692.3" y="138" width="5.4" height="10" fill="url(#waveGrad)" rx="2.5" opacity="0.06"/>
    <rect x="699.3" y="138" width="5.4" height="10" fill="url(#waveGrad)" rx="2.5" opacity="0.06"/>
    <rect x="706.2" y="138" width="5.4" height="10" fill="url(#waveGrad)" rx="2.5" opacity="0.06"/>
    <rect x="713.2" y="138" width="5.4" height="10" fill="url(#waveGrad)" rx="2.5" opacity="0.06"/>
    <rect x="720.1" y="136" width="5.4" height="12" fill="url(#waveGrad)" rx="2.5" opacity="0.06"/>
    <rect x="727.1" y="132" width="5.4" height="16" fill="url(#waveGrad)" rx="2.5" opacity="0.06"/>
    <rect x="734.1" y="135" width="5.4" height="13" fill="url(#waveGrad)" rx="2.5" opacity="0.06"/>
    <rect x="741.0" y="120" width="5.4" height="28" fill="url(#waveGrad)" rx="2.5" opacity="0.06"/>
    <rect x="748.0" y="125" width="5.4" height="23" fill="url(#waveGrad)" rx="2.5" opacity="0.06"/>
    <rect x="755.0" y="124" width="5.4" height="24" fill="url(#waveGrad)" rx="2.5" opacity="0.06"/>
    <rect x="761.9" y="117" width="5.4" height="31" fill="url(#waveGrad)" rx="2.5" opacity="0.06"/>
    <rect x="768.9" y="134" width="5.4" height="14" fill="url(#waveGrad)" rx="2.5" opacity="0.06"/>
    <rect x="775.8" y="133" width="5.4" height="15" fill="url(#waveGrad)" rx="2.5" opacity="0.06"/>
    <rect x="782.8" y="138" width="5.4" height="10" fill="url(#waveGrad)" rx="2.5" opacity="0.06"/>
    <rect x="789.8" y="138" width="5.4" height="10" fill="url(#waveGrad)" rx="2.5" opacity="0.06"/>
    <rect x="796.7" y="138" width="5.4" height="10" fill="url(#waveGrad)" rx="2.5" opacity="0.06"/>
    <rect x="803.7" y="138" width="5.4" height="10" fill="url(#waveGrad)" rx="2.5" opacity="0.06"/>
    <rect x="810.7" y="138" width="5.4" height="10" fill="url(#waveGrad)" rx="2.5" opacity="0.06"/>
    <rect x="817.6" y="138" width="5.4" height="10" fill="url(#waveGrad)" rx="2.5" opacity="0.06"/>
    <rect x="824.6" y="138" width="5.4" height="10" fill="url(#waveGrad)" rx="2.5" opacity="0.06"/>
    <rect x="831.5" y="138" width="5.4" height="10" fill="url(#waveGrad)" rx="2.5" opacity="0.06"/>
  </g>

  <!-- Bars -->
  <g>
    <rect x="4.6" y="141" width="2.4" height="4" fill="url(#waveGrad)" rx="1.2" opacity="0.45"/>
    <rect x="11.5" y="138" width="2.4" height="7" fill="url(#waveGrad)" rx="1.2" opacity="0.45"/>
    <rect x="18.5" y="133" width="2.4" height="12" fill="url(#waveGrad)" rx="1.2" opacity="0.45"/>
    <rect x="25.4" y="137" width="2.4" height="8" fill="url(#waveGrad)" rx="1.2" opacity="0.45"/>
    <rect x="32.4" y="134" width="2.4" height="11" fill="url(#waveGrad)" rx="1.2" opacity="0.45"/>
    <rect x="39.4" y="137" width="2.4" height="8" fill="url(#waveGrad)" rx="1.2" opacity="0.45"/>
    <rect x="46.3" y="128" width="2.4" height="17" fill="url(#waveGrad)" rx="1.2" opacity="0.45"/>
    <rect x="53.3" y="136" width="2.4" height="9" fill="url(#waveGrad)" rx="1.2" opacity="0.45"/>
    <rect x="60.3" y="139" width="2.4" height="6" fill="url(#waveGrad)" rx="1.2" opacity="0.45"/>
    <rect x="67.2" y="141" width="2.4" height="4" fill="url(#waveGrad)" rx="1.2" opacity="0.45"/>
    <rect x="74.2" y="141" width="2.4" height="4" fill="url(#waveGrad)" rx="1.2" opacity="0.45"/>
    <rect x="81.1" y="141" width="2.4" height="4" fill="url(#waveGrad)" rx="1.2" opacity="0.45"/>
    <rect x="88.1" y="141" width="2.4" height="4" fill="url(#waveGrad)" rx="1.2" opacity="0.45"/>
    <rect x="95.1" y="141" width="2.4" height="4" fill="url(#waveGrad)" rx="1.2" opacity="0.45"/>
    <rect x="102.0" y="140" width="2.4" height="5" fill="url(#waveGrad)" rx="1.2" opacity="0.45"/>
    <rect x="109.0" y="136" width="2.4" height="9" fill="url(#waveGrad)" rx="1.2" opacity="0.45"/>
    <rect x="116.0" y="133" width="2.4" height="12" fill="url(#waveGrad)" rx="1.2" opacity="0.45"/>
    <rect x="122.9" y="127" width="2.4" height="18" fill="url(#waveGrad)" rx="1.2" opacity="0.45"/>
    <rect x="129.9" y="130" width="2.4" height="15" fill="url(#waveGrad)" rx="1.2" opacity="0.45"/>
    <rect x="136.8" y="107" width="2.4" height="38" fill="url(#waveGrad)" rx="1.2" opacity="0.45"/>
    <rect x="143.8" y="117" width="2.4" height="28" fill="url(#waveGrad)" rx="1.2" opacity="0.45"/>
    <rect x="150.8" y="113" width="2.4" height="32" fill="url(#waveGrad)" rx="1.2" opacity="0.45"/>
    <rect x="157.7" y="122" width="2.4" height="23" fill="url(#waveGrad)" rx="1.2" opacity="0.45"/>
    <rect x="164.7" y="139" width="2.4" height="6" fill="url(#waveGrad)" rx="1.2" opacity="0.45"/>
    <rect x="171.6" y="139" width="2.4" height="6" fill="url(#waveGrad)" rx="1.2" opacity="0.45"/>
    <rect x="178.6" y="141" width="2.4" height="4" fill="url(#waveGrad)" rx="1.2" opacity="0.45"/>
    <rect x="185.6" y="141" width="2.4" height="4" fill="url(#waveGrad)" rx="1.2" opacity="0.45"/>
    <rect x="192.5" y="141" width="2.4" height="4" fill="url(#waveGrad)" rx="1.2" opacity="0.45"/>
    <rect x="199.5" y="139" width="2.4" height="6" fill="url(#waveGrad)" rx="1.2" opacity="0.45"/>
    <rect x="206.5" y="132" width="2.4" height="13" fill="url(#waveGrad)" rx="1.2" opacity="0.45"/>
    <rect x="213.4" y="128" width="2.4" height="17" fill="url(#waveGrad)" rx="1.2" opacity="0.45"/>
    <rect x="220.4" y="129" width="2.4" height="16" fill="url(#waveGrad)" rx="1.2" opacity="0.45"/>
    <rect x="227.3" y="125" width="2.4" height="20" fill="url(#waveGrad)" rx="1.2" opacity="0.45"/>
    <rect x="234.3" y="72" width="2.4" height="73" fill="url(#waveGrad)" rx="1.2" opacity="0.45"/>
    <rect x="241.3" y="74" width="2.4" height="71" fill="url(#waveGrad)" rx="1.2" opacity="0.45"/>
    <rect x="248.2" y="85" width="2.4" height="60" fill="url(#waveGrad)" rx="1.2" opacity="0.45"/>
    <rect x="255.2" y="104" width="2.4" height="41" fill="url(#waveGrad)" rx="1.2" opacity="0.45"/>
    <rect x="262.2" y="108" width="2.4" height="37" fill="url(#waveGrad)" rx="1.2" opacity="0.45"/>
    <rect x="269.1" y="125" width="2.4" height="20" fill="url(#waveGrad)" rx="1.2" opacity="0.45"/>
    <rect x="276.1" y="138" width="2.4" height="7" fill="url(#waveGrad)" rx="1.2" opacity="0.45"/>
    <rect x="283.0" y="141" width="2.4" height="4" fill="url(#waveGrad)" rx="1.2" opacity="0.45"/>
    <rect x="290.0" y="141" width="2.4" height="4" fill="url(#waveGrad)" rx="1.2" opacity="0.45"/>
    <rect x="297.0" y="141" width="2.4" height="4" fill="url(#waveGrad)" rx="1.2" opacity="0.45"/>
    <rect x="303.9" y="133" width="2.4" height="12" fill="url(#waveGrad)" rx="1.2" opacity="0.45"/>
    <rect x="310.9" y="126" width="2.4" height="19" fill="url(#waveGrad)" rx="1.2" opacity="0.45"/>
    <rect x="317.9" y="126" width="2.4" height="19" fill="url(#waveGrad)" rx="1.2" opacity="0.45"/>
    <rect x="324.8" y="94" width="2.4" height="51" fill="url(#waveGrad)" rx="1.2" opacity="0.45"/>
    <rect x="331.8" y="107" width="2.4" height="38" fill="url(#waveGrad)" rx="1.2" opacity="0.45"/>
    <rect x="338.7" y="83" width="2.4" height="62" fill="url(#waveGrad)" rx="1.2" opacity="0.45"/>
    <rect x="345.7" y="92" width="2.4" height="53" fill="url(#waveGrad)" rx="1.2" opacity="0.45"/>
    <rect x="352.7" y="105" width="2.4" height="40" fill="url(#waveGrad)" rx="1.2" opacity="0.45"/>
    <rect x="359.6" y="119" width="2.4" height="26" fill="url(#waveGrad)" rx="1.2" opacity="0.45"/>
    <rect x="366.6" y="91" width="2.4" height="54" fill="url(#waveGrad)" rx="1.2" opacity="0.45"/>
    <rect x="373.5" y="123" width="2.4" height="22" fill="url(#waveGrad)" rx="1.2" opacity="0.45"/>
    <rect x="380.5" y="140" width="2.4" height="5" fill="url(#waveGrad)" rx="1.2" opacity="0.45"/>
    <rect x="387.5" y="141" width="2.4" height="4" fill="url(#waveGrad)" rx="1.2" opacity="0.45"/>
    <rect x="394.4" y="141" width="2.4" height="4" fill="url(#waveGrad)" rx="1.2" opacity="0.45"/>
    <rect x="401.4" y="140" width="2.4" height="5" fill="url(#waveGrad)" rx="1.2" opacity="0.45"/>
    <rect x="408.4" y="136" width="2.4" height="9" fill="url(#waveGrad)" rx="1.2" opacity="0.45"/>
    <rect x="415.3" y="116" width="2.4" height="29" fill="url(#waveGrad)" rx="1.2" opacity="0.45"/>
    <rect x="422.3" y="79" width="2.4" height="66" fill="url(#waveGrad)" rx="1.2" opacity="0.45"/>
    <rect x="429.2" y="108" width="2.4" height="37" fill="url(#waveGrad)" rx="1.2" opacity="0.45"/>
    <rect x="436.2" y="66" width="2.4" height="79" fill="url(#waveGrad)" rx="1.2" opacity="0.45"/>
    <rect x="443.2" y="82" width="2.4" height="63" fill="url(#waveGrad)" rx="1.2" opacity="0.45"/>
    <rect x="450.1" y="81" width="2.4" height="64" fill="url(#waveGrad)" rx="1.2" opacity="0.45"/>
    <rect x="457.1" y="68" width="2.4" height="77" fill="url(#waveGrad)" rx="1.2" opacity="0.45"/>
    <rect x="464.1" y="114" width="2.4" height="31" fill="url(#waveGrad)" rx="1.2" opacity="0.45"/>
    <rect x="471.0" y="100" width="2.4" height="45" fill="url(#waveGrad)" rx="1.2" opacity="0.45"/>
    <rect x="478.0" y="120" width="2.4" height="25" fill="url(#waveGrad)" rx="1.2" opacity="0.45"/>
    <rect x="484.9" y="141" width="2.4" height="4" fill="url(#waveGrad)" rx="1.2" opacity="0.45"/>
    <rect x="491.9" y="141" width="2.4" height="4" fill="url(#waveGrad)" rx="1.2" opacity="0.45"/>
    <rect x="498.9" y="141" width="2.4" height="4" fill="url(#waveGrad)" rx="1.2" opacity="0.45"/>
    <rect x="505.8" y="140" width="2.4" height="5" fill="url(#waveGrad)" rx="1.2" opacity="0.45"/>
    <rect x="512.8" y="133" width="2.4" height="12" fill="url(#waveGrad)" rx="1.2" opacity="0.45"/>
    <rect x="519.7" y="126" width="2.4" height="19" fill="url(#waveGrad)" rx="1.2" opacity="0.45"/>
    <rect x="526.7" y="106" width="2.4" height="39" fill="url(#waveGrad)" rx="1.2" opacity="0.45"/>
    <rect x="533.7" y="94" width="2.4" height="51" fill="url(#waveGrad)" rx="1.2" opacity="0.45"/>
    <rect x="540.6" y="113" width="2.4" height="32" fill="url(#waveGrad)" rx="1.2" opacity="0.45"/>
    <rect x="547.6" y="56" width="2.4" height="89" fill="url(#waveGrad)" rx="1.2" opacity="0.45"/>
    <rect x="554.6" y="99" width="2.4" height="46" fill="url(#waveGrad)" rx="1.2" opacity="0.45"/>
    <rect x="561.5" y="84" width="2.4" height="61" fill="url(#waveGrad)" rx="1.2" opacity="0.45"/>
    <rect x="568.5" y="118" width="2.4" height="27" fill="url(#waveGrad)" rx="1.2" opacity="0.45"/>
    <rect x="575.4" y="116" width="2.4" height="29" fill="url(#waveGrad)" rx="1.2" opacity="0.45"/>
    <rect x="582.4" y="126" width="2.4" height="19" fill="url(#waveGrad)" rx="1.2" opacity="0.45"/>
    <rect x="589.4" y="141" width="2.4" height="4" fill="url(#waveGrad)" rx="1.2" opacity="0.45"/>
    <rect x="596.3" y="141" width="2.4" height="4" fill="url(#waveGrad)" rx="1.2" opacity="0.45"/>
    <rect x="603.3" y="141" width="2.4" height="4" fill="url(#waveGrad)" rx="1.2" opacity="0.45"/>
    <rect x="610.3" y="141" width="2.4" height="4" fill="url(#waveGrad)" rx="1.2" opacity="0.45"/>
    <rect x="617.2" y="128" width="2.4" height="17" fill="url(#waveGrad)" rx="1.2" opacity="0.45"/>
    <rect x="624.2" y="130" width="2.4" height="15" fill="url(#waveGrad)" rx="1.2" opacity="0.45"/>
    <rect x="631.1" y="109" width="2.4" height="36" fill="url(#waveGrad)" rx="1.2" opacity="0.45"/>
    <rect x="638.1" y="97" width="2.4" height="48" fill="url(#waveGrad)" rx="1.2" opacity="0.45"/>
    <rect x="645.1" y="97" width="2.4" height="48" fill="url(#waveGrad)" rx="1.2" opacity="0.45"/>
    <rect x="652.0" y="105" width="2.4" height="40" fill="url(#waveGrad)" rx="1.2" opacity="0.45"/>
    <rect x="659.0" y="98" width="2.4" height="47" fill="url(#waveGrad)" rx="1.2" opacity="0.45"/>
    <rect x="666.0" y="115" width="2.4" height="30" fill="url(#waveGrad)" rx="1.2" opacity="0.45"/>
    <rect x="672.9" y="128" width="2.4" height="17" fill="url(#waveGrad)" rx="1.2" opacity="0.45"/>
    <rect x="679.9" y="134" width="2.4" height="11" fill="url(#waveGrad)" rx="1.2" opacity="0.45"/>
    <rect x="686.8" y="140" width="2.4" height="5" fill="url(#waveGrad)" rx="1.2" opacity="0.45"/>
    <rect x="693.8" y="141" width="2.4" height="4" fill="url(#waveGrad)" rx="1.2" opacity="0.45"/>
    <rect x="700.8" y="141" width="2.4" height="4" fill="url(#waveGrad)" rx="1.2" opacity="0.45"/>
    <rect x="707.7" y="141" width="2.4" height="4" fill="url(#waveGrad)" rx="1.2" opacity="0.45"/>
    <rect x="714.7" y="141" width="2.4" height="4" fill="url(#waveGrad)" rx="1.2" opacity="0.45"/>
    <rect x="721.6" y="139" width="2.4" height="6" fill="url(#waveGrad)" rx="1.2" opacity="0.45"/>
    <rect x="728.6" y="135" width="2.4" height="10" fill="url(#waveGrad)" rx="1.2" opacity="0.45"/>
    <rect x="735.6" y="138" width="2.4" height="7" fill="url(#waveGrad)" rx="1.2" opacity="0.45"/>
    <rect x="742.5" y="123" width="2.4" height="22" fill="url(#waveGrad)" rx="1.2" opacity="0.45"/>
    <rect x="749.5" y="128" width="2.4" height="17" fill="url(#waveGrad)" rx="1.2" opacity="0.45"/>
    <rect x="756.5" y="127" width="2.4" height="18" fill="url(#waveGrad)" rx="1.2" opacity="0.45"/>
    <rect x="763.4" y="120" width="2.4" height="25" fill="url(#waveGrad)" rx="1.2" opacity="0.45"/>
    <rect x="770.4" y="137" width="2.4" height="8" fill="url(#waveGrad)" rx="1.2" opacity="0.45"/>
    <rect x="777.3" y="136" width="2.4" height="9" fill="url(#waveGrad)" rx="1.2" opacity="0.45"/>
    <rect x="784.3" y="141" width="2.4" height="4" fill="url(#waveGrad)" rx="1.2" opacity="0.45"/>
    <rect x="791.3" y="141" width="2.4" height="4" fill="url(#waveGrad)" rx="1.2" opacity="0.45"/>
    <rect x="798.2" y="141" width="2.4" height="4" fill="url(#waveGrad)" rx="1.2" opacity="0.45"/>
    <rect x="805.2" y="141" width="2.4" height="4" fill="url(#waveGrad)" rx="1.2" opacity="0.45"/>
    <rect x="812.2" y="141" width="2.4" height="4" fill="url(#waveGrad)" rx="1.2" opacity="0.45"/>
    <rect x="819.1" y="141" width="2.4" height="4" fill="url(#waveGrad)" rx="1.2" opacity="0.45"/>
    <rect x="826.1" y="141" width="2.4" height="4" fill="url(#waveGrad)" rx="1.2" opacity="0.45"/>
    <rect x="833.0" y="141" width="2.4" height="4" fill="url(#waveGrad)" rx="1.2" opacity="0.45"/>
  </g>

  <!-- Handle -->
  <text x="420" y="156" text-anchor="middle" fill="#b1bac4"
    font-family="'SF Mono','Fira Code','Cascadia Code',monospace" font-size="11" letter-spacing="3">
    yulflow
  </text>
</svg>